<svg width="833" height="28" viewBox="0 0 833 28" fill="none" xmlns="http://www.w3.org/2000/svg">
<path d="M5.65696 25H0.713778L8.24574 3.18182H14.1903L21.7116 25H16.7685L11.3033 8.16761H11.1328L5.65696 25ZM5.34801 16.424H17.0241V20.0249H5.34801V16.424ZM24.3377 25V3.18182H32.9457C34.5934 3.18182 35.9996 3.47656 37.1644 4.06605C38.3363 4.64844 39.2276 5.47585 39.8384 6.5483C40.4563 7.61364 40.7653 8.86719 40.7653 10.3089C40.7653 11.7578 40.4528 13.0043 39.8278 14.0483C39.2028 15.0852 38.2972 15.8807 37.1112 16.4347C35.9322 16.9886 34.5046 17.2656 32.8285 17.2656H27.065V13.5582H32.0827C32.9634 13.5582 33.695 13.4375 34.2773 13.196C34.8597 12.9545 35.293 12.5923 35.5771 12.1094C35.8683 11.6264 36.0138 11.0263 36.0138 10.3089C36.0138 9.58452 35.8683 8.97372 35.5771 8.47656C35.293 7.9794 34.8562 7.60298 34.2667 7.3473C33.6843 7.08452 32.9492 6.95312 32.0614 6.95312H28.9506V25H24.3377ZM36.1204 15.071L41.543 25H36.4506L31.1452 15.071H36.1204ZM43.1942 6.98508V3.18182H61.1133V6.98508H54.4336V25H49.8739V6.98508H43.1942ZM68.6772 3.18182V25H64.0643V3.18182H68.6772ZM84.3084 9.45668C84.2232 8.5973 83.8574 7.92969 83.2111 7.45383C82.5648 6.97798 81.6877 6.74006 80.5797 6.74006C79.8269 6.74006 79.1912 6.84659 78.6728 7.05966C78.1543 7.26562 77.7566 7.55327 77.4796 7.92258C77.2097 8.2919 77.0748 8.71094 77.0748 9.17969C77.0605 9.57031 77.1422 9.91122 77.3198 10.2024C77.5044 10.4936 77.7566 10.7457 78.0762 10.9588C78.3958 11.1648 78.7651 11.3459 79.1841 11.5021C79.6032 11.6513 80.0506 11.7791 80.5265 11.8857L82.4867 12.3544C83.4384 12.5675 84.312 12.8516 85.1074 13.2067C85.9029 13.5618 86.5918 13.9986 87.1742 14.517C87.7566 15.0355 88.2076 15.6463 88.5272 16.3494C88.8539 17.0526 89.0208 17.8587 89.0279 18.7678C89.0208 20.103 88.6799 21.2607 88.0051 22.2408C87.3375 23.2138 86.3716 23.9702 85.1074 24.5099C83.8503 25.0426 82.334 25.3089 80.5584 25.3089C78.7971 25.3089 77.263 25.0391 75.9561 24.4993C74.6564 23.9595 73.6408 23.1605 72.9093 22.1023C72.1848 21.0369 71.8049 19.7195 71.7694 18.1499H76.2331C76.2828 18.8814 76.4924 19.4922 76.8617 19.9822C77.2381 20.4652 77.7388 20.831 78.3638 21.0795C78.9959 21.321 79.7097 21.4418 80.5051 21.4418C81.2864 21.4418 81.9647 21.3281 82.54 21.1009C83.1223 20.8736 83.5733 20.5575 83.8929 20.1527C84.2125 19.7479 84.3723 19.2827 84.3723 18.7571C84.3723 18.267 84.2267 17.8551 83.9355 17.5213C83.6515 17.1875 83.2324 16.9034 82.6784 16.669C82.1316 16.4347 81.4604 16.2216 80.665 16.0298L78.2892 15.4332C76.4498 14.9858 74.9973 14.2862 73.932 13.3345C72.8667 12.3828 72.3375 11.1009 72.3446 9.48864C72.3375 8.16761 72.6891 7.01349 73.3993 6.02628C74.1167 5.03906 75.1003 4.26847 76.3503 3.71449C77.6003 3.16051 79.0208 2.88352 80.6117 2.88352C82.231 2.88352 83.6444 3.16051 84.8517 3.71449C86.0662 4.26847 87.0108 5.03906 87.6855 6.02628C88.3603 7.01349 88.7083 8.15696 88.7296 9.45668H84.3084ZM91.2997 6.98508V3.18182H109.219V6.98508H102.539V25H97.9794V6.98508H91.2997Z" fill="#786644"/>
<path d="M305.657 25H300.714L308.246 3.18182H314.19L321.712 25H316.768L311.303 8.16761H311.133L305.657 25ZM305.348 16.424H317.024V20.0249H305.348V16.424ZM324.338 25V3.18182H332.946C334.593 3.18182 336 3.47656 337.164 4.06605C338.336 4.64844 339.228 5.47585 339.838 6.5483C340.456 7.61364 340.765 8.86719 340.765 10.3089C340.765 11.7578 340.453 13.0043 339.828 14.0483C339.203 15.0852 338.297 15.8807 337.111 16.4347C335.932 16.9886 334.505 17.2656 332.828 17.2656H327.065V13.5582H332.083C332.963 13.5582 333.695 13.4375 334.277 13.196C334.86 12.9545 335.293 12.5923 335.577 12.1094C335.868 11.6264 336.014 11.0263 336.014 10.3089C336.014 9.58452 335.868 8.97372 335.577 8.47656C335.293 7.9794 334.856 7.60298 334.267 7.3473C333.684 7.08452 332.949 6.95312 332.061 6.95312H328.951V25H324.338ZM336.12 15.071L341.543 25H336.451L331.145 15.071H336.12ZM363.276 10.8203H358.61C358.525 10.2166 358.35 9.6804 358.088 9.21165C357.825 8.73579 357.488 8.33097 357.076 7.99716C356.664 7.66335 356.188 7.40767 355.648 7.23011C355.115 7.05256 354.537 6.96378 353.912 6.96378C352.782 6.96378 351.799 7.24432 350.961 7.8054C350.123 8.35937 349.473 9.16903 349.011 10.2344C348.549 11.2926 348.319 12.5781 348.319 14.0909C348.319 15.6463 348.549 16.9531 349.011 18.0114C349.48 19.0696 350.133 19.8686 350.971 20.4084C351.809 20.9482 352.779 21.218 353.88 21.218C354.498 21.218 355.069 21.1364 355.595 20.973C356.127 20.8097 356.6 20.5717 357.012 20.2592C357.424 19.9396 357.765 19.5526 358.034 19.098C358.311 18.6435 358.503 18.125 358.61 17.5426L363.276 17.5639C363.155 18.5653 362.853 19.5312 362.37 20.4616C361.895 21.3849 361.252 22.2124 360.442 22.9439C359.64 23.6683 358.681 24.2436 357.566 24.6697C356.458 25.0888 355.204 25.2983 353.805 25.2983C351.859 25.2983 350.119 24.858 348.585 23.9773C347.058 23.0966 345.85 21.8217 344.963 20.1527C344.082 18.4837 343.642 16.4631 343.642 14.0909C343.642 11.7116 344.089 9.6875 344.984 8.01847C345.879 6.34943 347.093 5.07812 348.627 4.20455C350.162 3.32386 351.887 2.88352 353.805 2.88352C355.069 2.88352 356.241 3.06108 357.321 3.41619C358.407 3.77131 359.37 4.28977 360.208 4.97159C361.046 5.64631 361.728 6.47372 362.253 7.45383C362.786 8.43395 363.127 9.55611 363.276 10.8203ZM366.584 25V3.18182H371.197V12.1839H380.561V3.18182H385.163V25H380.561V15.9872H371.197V25H366.584ZM393.58 3.18182V25H388.967V3.18182H393.58ZM396.544 6.98508V3.18182H414.463V6.98508H407.783V25H403.224V6.98508H396.544ZM417.414 25V3.18182H432.116V6.98508H422.027V12.1839H431.359V15.9872H422.027V21.1967H432.158V25H417.414ZM455.034 10.8203H450.368C450.282 10.2166 450.108 9.6804 449.846 9.21165C449.583 8.73579 449.245 8.33097 448.833 7.99716C448.422 7.66335 447.946 7.40767 447.406 7.23011C446.873 7.05256 446.294 6.96378 445.669 6.96378C444.54 6.96378 443.556 7.24432 442.718 7.8054C441.88 8.35937 441.23 9.16903 440.769 10.2344C440.307 11.2926 440.076 12.5781 440.076 14.0909C440.076 15.6463 440.307 16.9531 440.769 18.0114C441.238 19.0696 441.891 19.8686 442.729 20.4084C443.567 20.9482 444.537 21.218 445.637 21.218C446.255 21.218 446.827 21.1364 447.353 20.973C447.885 20.8097 448.358 20.5717 448.77 20.2592C449.181 19.9396 449.522 19.5526 449.792 19.098C450.069 18.6435 450.261 18.125 450.368 17.5426L455.034 17.5639C454.913 18.5653 454.611 19.5312 454.128 20.4616C453.652 21.3849 453.01 22.2124 452.2 22.9439C451.397 23.6683 450.439 24.2436 449.324 24.6697C448.216 25.0888 446.962 25.2983 445.563 25.2983C443.617 25.2983 441.877 24.858 440.343 23.9773C438.816 23.0966 437.608 21.8217 436.721 20.1527C435.84 18.4837 435.4 16.4631 435.4 14.0909C435.4 11.7116 435.847 9.6875 436.742 8.01847C437.637 6.34943 438.851 5.07812 440.385 4.20455C441.919 3.32386 443.645 2.88352 445.563 2.88352C446.827 2.88352 447.999 3.06108 449.078 3.41619C450.165 3.77131 451.127 4.28977 451.966 4.97159C452.804 5.64631 453.485 6.47372 454.011 7.45383C454.544 8.43395 454.885 9.55611 455.034 10.8203ZM457.511 6.98508V3.18182H475.43V6.98508H468.75V25H464.19V6.98508H457.511Z" fill="#786644"/>
<path d="M668.896 25V3.18182H677.504C679.152 3.18182 680.558 3.47656 681.723 4.06605C682.895 4.64844 683.786 5.47585 684.397 6.5483C685.015 7.61364 685.324 8.86719 685.324 10.3089C685.324 11.7578 685.011 13.0043 684.386 14.0483C683.761 15.0852 682.856 15.8807 681.67 16.4347C680.491 16.9886 679.063 17.2656 677.387 17.2656H671.624V13.5582H676.641C677.522 13.5582 678.254 13.4375 678.836 13.196C679.418 12.9545 679.852 12.5923 680.136 12.1094C680.427 11.6264 680.572 11.0263 680.572 10.3089C680.572 9.58452 680.427 8.97372 680.136 8.47656C679.852 7.9794 679.415 7.60298 678.825 7.3473C678.243 7.08452 677.508 6.95312 676.62 6.95312H673.509V25H668.896ZM680.679 15.071L686.102 25H681.009L675.704 15.071H680.679ZM688.584 25V3.18182H703.286V6.98508H693.197V12.1839H702.529V15.9872H693.197V21.1967H703.328V25H688.584ZM718.789 9.45668C718.704 8.5973 718.338 7.92969 717.692 7.45383C717.045 6.97798 716.168 6.74006 715.06 6.74006C714.307 6.74006 713.672 6.84659 713.153 7.05966C712.635 7.26562 712.237 7.55327 711.96 7.92258C711.69 8.2919 711.555 8.71094 711.555 9.17969C711.541 9.57031 711.623 9.91122 711.8 10.2024C711.985 10.4936 712.237 10.7457 712.557 10.9588C712.876 11.1648 713.246 11.3459 713.665 11.5021C714.084 11.6513 714.531 11.7791 715.007 11.8857L716.967 12.3544C717.919 12.5675 718.792 12.8516 719.588 13.2067C720.383 13.5618 721.072 13.9986 721.655 14.517C722.237 15.0355 722.688 15.6463 723.008 16.3494C723.334 17.0526 723.501 17.8587 723.508 18.7678C723.501 20.103 723.16 21.2607 722.486 22.2408C721.818 23.2138 720.852 23.9702 719.588 24.5099C718.331 25.0426 716.814 25.3089 715.039 25.3089C713.278 25.3089 711.743 25.0391 710.437 24.4993C709.137 23.9595 708.121 23.1605 707.39 22.1023C706.665 21.0369 706.285 19.7195 706.25 18.1499H710.714C710.763 18.8814 710.973 19.4922 711.342 19.9822C711.719 20.4652 712.219 20.831 712.844 21.0795C713.476 21.321 714.19 21.4418 714.986 21.4418C715.767 21.4418 716.445 21.3281 717.02 21.1009C717.603 20.8736 718.054 20.5575 718.373 20.1527C718.693 19.7479 718.853 19.2827 718.853 18.7571C718.853 18.267 718.707 17.8551 718.416 17.5213C718.132 17.1875 717.713 16.9034 717.159 16.669C716.612 16.4347 715.941 16.2216 715.145 16.0298L712.77 15.4332C710.93 14.9858 709.478 14.2862 708.412 13.3345C707.347 12.3828 706.818 11.1009 706.825 9.48864C706.818 8.16761 707.17 7.01349 707.88 6.02628C708.597 5.03906 709.581 4.26847 710.831 3.71449C712.081 3.16051 713.501 2.88352 715.092 2.88352C716.711 2.88352 718.125 3.16051 719.332 3.71449C720.547 4.26847 721.491 5.03906 722.166 6.02628C722.841 7.01349 723.189 8.15696 723.21 9.45668H718.789ZM726.611 25V3.18182H741.313V6.98508H731.224V12.1839H740.556V15.9872H731.224V21.1967H741.355V25H726.611ZM748.741 25H743.798L751.33 3.18182H757.274L764.796 25H759.852L754.387 8.16761H754.217L748.741 25ZM748.432 16.424H760.108V20.0249H748.432V16.424ZM767.422 25V3.18182H776.03C777.677 3.18182 779.084 3.47656 780.248 4.06605C781.42 4.64844 782.312 5.47585 782.922 6.5483C783.54 7.61364 783.849 8.86719 783.849 10.3089C783.849 11.7578 783.537 13.0043 782.912 14.0483C782.287 15.0852 781.381 15.8807 780.195 16.4347C779.016 16.9886 777.589 17.2656 775.912 17.2656H770.149V13.5582H775.167C776.047 13.5582 776.779 13.4375 777.361 13.196C777.944 12.9545 778.377 12.5923 778.661 12.1094C778.952 11.6264 779.098 11.0263 779.098 10.3089C779.098 9.58452 778.952 8.97372 778.661 8.47656C778.377 7.9794 777.94 7.60298 777.351 7.3473C776.768 7.08452 776.033 6.95312 775.145 6.95312H772.035V25H767.422ZM779.204 15.071L784.627 25H779.535L774.229 15.071H779.204ZM806.36 10.8203H801.694C801.608 10.2166 801.434 9.6804 801.172 9.21165C800.909 8.73579 800.572 8.33097 800.16 7.99716C799.748 7.66335 799.272 7.40767 798.732 7.23011C798.199 7.05256 797.621 6.96378 796.996 6.96378C795.866 6.96378 794.883 7.24432 794.045 7.8054C793.206 8.35937 792.557 9.16903 792.095 10.2344C791.633 11.2926 791.403 12.5781 791.403 14.0909C791.403 15.6463 791.633 16.9531 792.095 18.0114C792.564 19.0696 793.217 19.8686 794.055 20.4084C794.893 20.9482 795.863 21.218 796.964 21.218C797.581 21.218 798.153 21.1364 798.679 20.973C799.211 20.8097 799.684 20.5717 800.096 20.2592C800.508 19.9396 800.849 19.5526 801.118 19.098C801.395 18.6435 801.587 18.125 801.694 17.5426L806.36 17.5639C806.239 18.5653 805.937 19.5312 805.454 20.4616C804.979 21.3849 804.336 22.2124 803.526 22.9439C802.724 23.6683 801.765 24.2436 800.65 24.6697C799.542 25.0888 798.288 25.2983 796.889 25.2983C794.943 25.2983 793.203 24.858 791.669 23.9773C790.142 23.0966 788.934 21.8217 788.047 20.1527C787.166 18.4837 786.726 16.4631 786.726 14.0909C786.726 11.7116 787.173 9.6875 788.068 8.01847C788.963 6.34943 790.177 5.07812 791.711 4.20455C793.246 3.32386 794.971 2.88352 796.889 2.88352C798.153 2.88352 799.325 3.06108 800.405 3.41619C801.491 3.77131 802.454 4.28977 803.292 4.97159C804.13 5.64631 804.812 6.47372 805.337 7.45383C805.87 8.43395 806.211 9.55611 806.36 10.8203ZM809.668 25V3.18182H814.281V12.1839H823.645V3.18182H828.247V25H823.645V15.9872H814.281V25H809.668Z" fill="#786644"/>
</svg>
