<svg width="834" height="252" viewBox="0 0 834 252" fill="none" xmlns="http://www.w3.org/2000/svg">
<path d="M96.2514 39.4405H73.3766C72.9588 36.4405 72.1058 33.7759 70.8176 31.4465C69.5294 29.0818 67.8756 27.0701 65.8562 25.4113C63.8368 23.7525 61.5041 22.4819 58.858 21.5996C56.2467 20.7173 53.4092 20.2761 50.3453 20.2761C44.8094 20.2761 39.9872 21.6702 35.8788 24.4584C31.7704 27.2113 28.5847 31.2347 26.3216 36.5288C24.0585 41.7875 22.9269 48.1756 22.9269 55.6931C22.9269 63.4224 24.0585 69.9164 26.3216 75.1751C28.6195 80.4338 31.8227 84.4044 35.9311 87.0867C40.0395 89.769 44.792 91.1101 50.1886 91.1101C53.2177 91.1101 56.0204 90.7043 58.5969 89.8925C61.2081 89.0807 63.5235 87.8984 65.5428 86.3455C67.5622 84.7573 69.2334 82.8338 70.5565 80.575C71.9143 78.3162 72.8544 75.7398 73.3766 72.8457L96.2514 72.9516C95.6595 77.928 94.1798 82.7279 91.8122 87.3514C89.4795 91.9395 86.3285 96.0512 82.3594 99.6864C78.4251 103.286 73.7248 106.145 68.2586 108.263C62.8271 110.345 56.6819 111.386 49.823 111.386C40.2832 111.386 31.753 109.198 24.2326 104.822C16.7469 100.445 10.8281 94.1101 6.47595 85.8161C2.15865 77.5221 0 67.4811 0 55.6931C0 43.8698 2.19347 33.8112 6.5804 25.5172C10.9673 17.2232 16.921 10.9057 24.4415 6.56459C31.9619 2.1882 40.4224 0 49.823 0C56.0204 0 61.7652 0.882339 67.0574 2.64701C72.3844 4.41169 77.1021 6.98811 81.2105 10.3763C85.3189 13.7292 88.6613 17.8409 91.2377 22.7114C93.849 27.5819 95.5202 33.1582 96.2514 39.4405Z" fill="#786645"/>
<path d="M210.755 55.6931C210.755 67.5164 208.545 77.5751 204.123 85.869C199.736 94.163 193.747 100.498 186.157 104.875C178.602 109.216 170.107 111.386 160.671 111.386C151.166 111.386 142.636 109.198 135.081 104.822C127.526 100.445 121.555 94.1101 117.168 85.8161C112.781 77.5221 110.587 67.4811 110.587 55.6931C110.587 43.8698 112.781 33.8112 117.168 25.5172C121.555 17.2232 127.526 10.9057 135.081 6.56459C142.636 2.1882 151.166 0 160.671 0C170.107 0 178.602 2.1882 186.157 6.56459C193.747 10.9057 199.736 17.2232 204.123 25.5172C208.545 33.8112 210.755 43.8698 210.755 55.6931ZM187.829 55.6931C187.829 48.0344 186.697 41.5757 184.434 36.317C182.206 31.0583 179.055 27.0701 174.981 24.3525C170.908 21.6349 166.138 20.2761 160.671 20.2761C155.205 20.2761 150.435 21.6349 146.362 24.3525C142.288 27.0701 139.12 31.0583 136.857 36.317C134.628 41.5757 133.514 48.0344 133.514 55.6931C133.514 63.3518 134.628 69.8105 136.857 75.0692C139.12 80.328 142.288 84.3161 146.362 87.0337C150.435 89.7513 155.205 91.1101 160.671 91.1101C166.138 91.1101 170.908 89.7513 174.981 87.0337C179.055 84.3161 182.206 80.328 184.434 75.0692C186.697 69.8105 187.829 63.3518 187.829 55.6931Z" fill="#786645"/>
<path d="M285.529 32.6641C285.111 28.3936 283.318 25.076 280.15 22.7114C276.982 20.3467 272.682 19.1644 267.25 19.1644C263.56 19.1644 260.444 19.6938 257.902 20.7526C255.36 21.7761 253.411 23.2055 252.053 25.0407C250.73 26.876 250.068 28.9583 250.068 31.2877C249.999 33.2288 250.399 34.9229 251.269 36.3699C252.175 37.817 253.411 39.0699 254.977 40.1287C256.544 41.1522 258.355 42.0522 260.409 42.8286C262.463 43.5698 264.656 44.2051 266.989 44.7345L276.599 47.0639C281.264 48.1227 285.547 49.5344 289.446 51.2991C293.346 53.0638 296.723 55.2343 299.578 57.8107C302.433 60.3872 304.644 63.4224 306.21 66.9164C307.812 70.4105 308.63 74.4163 308.665 78.9339C308.63 85.569 306.959 91.3219 303.651 96.1924C300.379 101.028 295.643 104.786 289.446 107.469C283.283 110.116 275.85 111.439 267.146 111.439C258.511 111.439 250.991 110.098 244.584 107.416C238.213 104.733 233.234 100.763 229.648 95.5042C226.097 90.2101 224.234 83.6632 224.06 75.8633H245.942C246.186 79.4986 247.213 82.5338 249.024 84.9691C250.869 87.369 253.324 89.1866 256.387 90.4219C259.486 91.6219 262.985 92.2219 266.885 92.2219C270.715 92.2219 274.04 91.6572 276.86 90.5278C279.715 89.3984 281.926 87.8278 283.492 85.8161C285.059 83.8044 285.843 81.4926 285.843 78.8809C285.843 76.4457 285.129 74.3987 283.701 72.7399C282.309 71.0811 280.254 69.6693 277.539 68.5046C274.858 67.34 271.568 66.2812 267.668 65.3282L256.022 62.3636C247.004 60.1401 239.884 56.6637 234.662 51.9344C229.439 47.205 226.845 40.8346 226.88 32.8229C226.845 26.2584 228.569 20.5232 232.05 15.6174C235.567 10.7116 240.389 6.88223 246.517 4.12934C252.645 1.37645 259.608 0 267.407 0C275.345 0 282.274 1.37645 288.193 4.12934C294.146 6.88223 298.777 10.7116 302.085 15.6174C305.392 20.5232 307.098 26.2054 307.203 32.6641H285.529Z" fill="#786645"/>
<path d="M319.802 20.382V1.48233H407.645V20.382H374.9V109.904H352.547V20.382H319.802Z" fill="#786645"/>
<path d="M427.478 109.904H403.245L440.168 1.48233H469.31L506.181 109.904H481.949L455.157 26.2584H454.322L427.478 109.904ZM425.963 67.287H483.202V85.1808H425.963V67.287Z" fill="#786645"/>
<path d="M608.517 1.48233V109.904H588.985L542.452 41.664H541.669V109.904H519.055V1.48233H538.901L585.068 69.6693H586.008V1.48233H608.517Z" fill="#786645"/>
<path d="M626.052 109.904V96.2983L679.426 20.382H625.947V1.48233H707.837V15.088L654.41 91.0042H707.941V109.904H626.052Z" fill="#786645"/>
<path d="M743.729 109.904H719.496L756.419 1.48233H785.561L822.432 109.904H798.2L771.408 26.2584H770.572L743.729 109.904ZM742.214 67.287H799.453V85.1808H742.214V67.287Z" fill="#786645"/>
<path d="M1.88011 250.465V142.043H44.0782C52.1557 142.043 59.0495 143.508 64.7595 146.437C70.5043 149.331 74.8738 153.443 77.868 158.772C80.8971 164.066 82.4116 170.296 82.4116 177.46C82.4116 184.66 80.8797 190.854 77.8158 196.042C74.7519 201.195 70.3128 205.148 64.4983 207.901C58.7187 210.654 51.7205 212.03 43.5037 212.03H15.2498V193.607H39.848C44.1653 193.607 47.7514 193.007 50.6064 191.807C53.4614 190.607 55.5852 188.807 56.9779 186.407C58.4054 184.007 59.1191 181.025 59.1191 177.46C59.1191 173.86 58.4054 170.825 56.9779 168.354C55.5852 165.884 53.444 164.013 50.5542 162.743C47.6992 161.437 44.0956 160.784 39.7435 160.784H24.4937V250.465H1.88011ZM59.6414 201.124L86.2241 250.465H61.2604L35.2521 201.124H59.6414Z" fill="#786645"/>
<path d="M196.681 196.254C196.681 208.077 194.47 218.136 190.048 226.43C185.661 234.724 179.673 241.059 172.083 245.435C164.527 249.777 156.032 251.947 146.597 251.947C137.092 251.947 128.561 249.759 121.006 245.382C113.451 241.006 107.48 234.671 103.093 226.377C98.706 218.083 96.5125 208.042 96.5125 196.254C96.5125 184.431 98.706 174.372 103.093 166.078C107.48 157.784 113.451 151.467 121.006 147.125C128.561 142.749 137.092 140.561 146.597 140.561C156.032 140.561 164.527 142.749 172.083 147.125C179.673 151.467 185.661 157.784 190.048 166.078C194.47 174.372 196.681 184.431 196.681 196.254ZM173.754 196.254C173.754 188.595 172.622 182.137 170.359 176.878C168.131 171.619 164.98 167.631 160.906 164.913C156.833 162.196 152.063 160.837 146.597 160.837C141.13 160.837 136.36 162.196 132.287 164.913C128.213 167.631 125.045 171.619 122.782 176.878C120.554 182.137 119.439 188.595 119.439 196.254C119.439 203.913 120.554 210.371 122.782 215.63C125.045 220.889 128.213 224.877 132.287 227.595C136.36 230.312 141.13 231.671 146.597 231.671C152.063 231.671 156.833 230.312 160.906 227.595C164.98 224.877 168.131 220.889 170.359 215.63C172.622 210.371 173.754 203.913 173.754 196.254Z" fill="#786645"/>
<path d="M271.454 173.225C271.037 168.954 269.244 165.637 266.075 163.272C262.907 160.908 258.607 159.725 253.176 159.725C249.485 159.725 246.369 160.255 243.827 161.313C241.286 162.337 239.336 163.766 237.978 165.602C236.655 167.437 235.993 169.519 235.993 171.849C235.924 173.79 236.324 175.484 237.195 176.931C238.1 178.378 239.336 179.631 240.903 180.69C242.469 181.713 244.28 182.613 246.334 183.389C248.388 184.131 250.582 184.766 252.914 185.295L262.524 187.625C267.189 188.683 271.472 190.095 275.371 191.86C279.271 193.625 282.648 195.795 285.503 198.372C288.358 200.948 290.569 203.983 292.136 207.477C293.737 210.971 294.555 214.977 294.59 219.495C294.555 226.13 292.884 231.883 289.577 236.753C286.304 241.588 281.569 245.347 275.371 248.029C269.209 250.677 261.775 252 253.071 252C244.437 252 236.916 250.659 230.51 247.977C224.138 245.294 219.159 241.324 215.573 236.065C212.022 230.771 210.159 224.224 209.985 216.424H231.868C232.111 220.059 233.138 223.095 234.949 225.53C236.794 227.93 239.249 229.747 242.313 230.983C245.411 232.183 248.91 232.783 252.81 232.783C256.64 232.783 259.965 232.218 262.785 231.089C265.64 229.959 267.851 228.389 269.418 226.377C270.984 224.365 271.768 222.053 271.768 219.442C271.768 217.007 271.054 214.959 269.627 213.301C268.234 211.642 266.18 210.23 263.464 209.065C260.783 207.901 257.493 206.842 253.593 205.889L241.947 202.924C232.93 200.701 225.809 197.225 220.587 192.495C215.364 187.766 212.771 181.395 212.805 173.384C212.771 166.819 214.494 161.084 217.976 156.178C221.492 151.272 226.314 147.443 232.442 144.69C238.57 141.937 245.533 140.561 253.332 140.561C261.27 140.561 268.199 141.937 274.118 144.69C280.072 147.443 284.702 151.272 288.01 156.178C291.317 161.084 293.024 166.766 293.128 173.225H271.454Z" fill="#786645"/>
<path d="M367.823 173.225C367.405 168.954 365.612 165.637 362.444 163.272C359.276 160.908 354.976 159.725 349.544 159.725C345.854 159.725 342.738 160.255 340.196 161.313C337.654 162.337 335.705 163.766 334.347 165.602C333.024 167.437 332.362 169.519 332.362 171.849C332.293 173.79 332.693 175.484 333.563 176.931C334.469 178.378 335.705 179.631 337.271 180.69C338.838 181.713 340.649 182.613 342.703 183.389C344.757 184.131 346.951 184.766 349.283 185.295L358.893 187.625C363.558 188.683 367.841 190.095 371.74 191.86C375.64 193.625 379.017 195.795 381.872 198.372C384.727 200.948 386.938 203.983 388.505 207.477C390.106 210.971 390.924 214.977 390.959 219.495C390.924 226.13 389.253 231.883 385.946 236.753C382.673 241.588 377.938 245.347 371.74 248.029C365.578 250.677 358.144 252 349.44 252C340.805 252 333.285 250.659 326.879 247.977C320.507 245.294 315.528 241.324 311.942 236.065C308.391 230.771 306.528 224.224 306.354 216.424H328.236C328.48 220.059 329.507 223.095 331.318 225.53C333.163 227.93 335.618 229.747 338.682 230.983C341.78 232.183 345.279 232.783 349.179 232.783C353.009 232.783 356.334 232.218 359.154 231.089C362.009 229.959 364.22 228.389 365.787 226.377C367.353 224.365 368.137 222.053 368.137 219.442C368.137 217.007 367.423 214.959 365.995 213.301C364.603 211.642 362.549 210.23 359.833 209.065C357.152 207.901 353.862 206.842 349.962 205.889L338.316 202.924C329.298 200.701 322.178 197.225 316.956 192.495C311.733 187.766 309.139 181.395 309.174 173.384C309.139 166.819 310.863 161.084 314.345 156.178C317.861 151.272 322.683 147.443 328.811 144.69C334.939 141.937 341.902 140.561 349.701 140.561C357.639 140.561 364.568 141.937 370.487 144.69C376.44 147.443 381.071 151.272 384.379 156.178C387.686 161.084 389.392 166.766 389.497 173.225H367.823Z" fill="#786645"/>
<path d="M428.783 142.043V250.465H406.17V142.043H428.783Z" fill="#786645"/>
<path d="M519.342 250.465H481.427V142.043H519.656C530.414 142.043 539.675 144.214 547.439 148.555C555.204 152.861 561.175 159.055 565.353 167.137C569.566 175.219 571.672 184.889 571.672 196.148C571.672 207.442 569.566 217.148 565.353 225.265C561.175 233.383 555.169 239.612 547.335 243.953C539.536 248.294 530.205 250.465 519.342 250.465ZM504.04 230.824H518.402C525.087 230.824 530.71 229.624 535.271 227.224C539.867 224.789 543.314 221.03 545.612 215.948C547.944 210.83 549.111 204.23 549.111 196.148C549.111 188.136 547.944 181.59 545.612 176.507C543.314 171.425 539.884 167.684 535.323 165.284C530.762 162.884 525.139 161.684 518.454 161.684H504.04V230.824Z" fill="#786645"/>
<path d="M588.423 250.465V142.043H660.494V160.943H611.037V186.778H656.786V205.677H611.037V231.565H660.703V250.465H588.423Z" fill="#786645"/>
<path d="M770.533 173.225C770.115 168.954 768.322 165.637 765.154 163.272C761.986 160.908 757.686 159.725 752.254 159.725C748.564 159.725 745.448 160.255 742.906 161.313C740.364 162.337 738.415 163.766 737.057 165.602C735.734 167.437 735.072 169.519 735.072 171.849C735.003 173.79 735.403 175.484 736.273 176.931C737.179 178.378 738.415 179.631 739.981 180.69C741.548 181.713 743.359 182.613 745.413 183.389C747.467 184.131 749.66 184.766 751.993 185.295L761.603 187.625C766.268 188.683 770.551 190.095 774.45 191.86C778.35 193.625 781.727 195.795 784.582 198.372C787.437 200.948 789.648 203.983 791.214 207.477C792.816 210.971 793.634 214.977 793.669 219.495C793.634 226.13 791.963 231.883 788.655 236.753C785.383 241.588 780.647 245.347 774.45 248.029C768.287 250.677 760.854 252 752.15 252C743.515 252 735.995 250.659 729.588 247.977C723.217 245.294 718.238 241.324 714.652 236.065C711.101 230.771 709.238 224.224 709.064 216.424H730.946C731.19 220.059 732.217 223.095 734.028 225.53C735.873 227.93 738.328 229.747 741.391 230.983C744.49 232.183 747.989 232.783 751.889 232.783C755.719 232.783 759.044 232.218 761.864 231.089C764.719 229.959 766.93 228.389 768.496 226.377C770.063 224.365 770.847 222.053 770.847 219.442C770.847 217.007 770.133 214.959 768.705 213.301C767.313 211.642 765.258 210.23 762.543 209.065C759.862 207.901 756.572 206.842 752.672 205.889L741.026 202.924C732.008 200.701 724.888 197.225 719.666 192.495C714.443 187.766 711.849 181.395 711.884 173.384C711.849 166.819 713.573 161.084 717.054 156.178C720.571 151.272 725.393 147.443 731.521 144.69C737.649 141.937 744.612 140.561 752.411 140.561C760.349 140.561 767.278 141.937 773.197 144.69C779.15 147.443 783.781 151.272 787.089 156.178C790.396 161.084 792.102 166.766 792.207 173.225H770.533Z" fill="#786645"/>
<path d="M821.466 251.841C818.019 251.841 815.06 250.606 812.588 248.135C810.15 245.63 808.932 242.63 808.932 239.136C808.932 235.677 810.15 232.712 812.588 230.242C815.06 227.771 818.019 226.536 821.466 226.536C824.808 226.536 827.733 227.771 830.24 230.242C832.747 232.712 834 235.677 834 239.136C834 241.465 833.408 243.6 832.224 245.541C831.075 247.447 829.561 248.982 827.681 250.147C825.801 251.276 823.729 251.841 821.466 251.841Z" fill="#786645"/>
</svg>
